# xmcd
#
# Track frame offsets:
#	150
#	12042
#	26295
#	46702
#	63202
#	75400
#	104707
#	117860
#	131475
#	152212
#	166342
#	182202
#
# Disc length: 2653 seconds
#
# Revision: 4
# Processed by: cddbd v1.5.2PL0 Copyright (c) Steve Scherf et al.
# Submitted via: audiograbber 1.83.01
#
DISCID=8a0a5b0c
DTITLE=Various Artist - New Country - February 1995
DYEAR=1995
DGENRE=Country
TTITLE0=Neal McCoy - You Gotta Love That
TTITLE1=Wylie and The Wild West Show - Hey Maria
TTITLE2=Lari White - Now I Know
TTITLE3=The Subdudes - Angel To Be
TTITLE4=Don Cox - Honey Don't Pay The Ransom
TTITLE5=Duke Levine - I Think It's Going To Work Out Fine
TTITLE6=Mary Karlzen - I'd Be Lying
TTITLE7=Freedy Johnston - Evie's Tears
TTITLE8=Mary Chapin Carpenter - Jubilee
TTITLE9=Shenandoah - Heaven Bound (I'm Ready)
TTITLE10=Tom Paxton - When I Go To See My Son
TTITLE11=Cynthia Clawson - O Come, Angel Band
EXTD=
EXTT0=
EXTT1=
EXTT2=
EXTT3=
EXTT4=
EXTT5=
EXTT6=
EXTT7=
EXTT8=
EXTT9=
EXTT10=
EXTT11=
PLAYORDER=
